<svg width="24" height="24" viewBox="0 0 24 24" fill="none" xmlns="http://www.w3.org/2000/svg">
<path d="M19.9453 15.2611C21.2582 16.574 21.2582 18.7027 19.9453 20.0157C18.6323 21.3286 16.5036 21.3286 15.1907 20.0157C13.8778 18.7027 13.8778 16.574 15.1907 15.2611C16.5036 13.9481 18.6323 13.9481 19.9453 15.2611" stroke="#707579" stroke-width="1.5" stroke-linecap="round" stroke-linejoin="round"/>
<path fill-rule="evenodd" clip-rule="evenodd" d="M21.253 7.1533L18.355 10.0513C17.917 10.4893 17.208 10.4893 16.77 10.0513L13.872 7.1533C13.435 6.7163 13.435 6.0063 13.872 5.5693L16.77 2.6703C17.208 2.2323 17.917 2.2323 18.355 2.6703L21.253 5.5683C21.69 6.0063 21.69 6.7153 21.253 7.1533V7.1533Z" stroke="#707579" stroke-width="1.5" stroke-linecap="round" stroke-linejoin="round"/>
<path fill-rule="evenodd" clip-rule="evenodd" d="M4.31802 9.53043H8.41602C9.03502 9.53043 9.53702 9.02843 9.53702 8.40943V4.31143C9.53702 3.69243 9.03502 3.19043 8.41602 3.19043H4.31802C3.69902 3.19043 3.19702 3.69243 3.19702 4.31143V8.40943C3.19702 9.02843 3.69902 9.53043 4.31802 9.53043Z" stroke="#707579" stroke-width="1.5" stroke-linecap="round" stroke-linejoin="round"/>
<path fill-rule="evenodd" clip-rule="evenodd" d="M5.36402 15.1564L2.88002 19.1324C2.38802 19.9194 2.95402 20.9404 3.88202 20.9404H8.85102C9.77902 20.9404 10.345 19.9194 9.85302 19.1324L7.36902 15.1574C6.90602 14.4164 5.82702 14.4164 5.36402 15.1564V15.1564Z" stroke="#707579" stroke-width="1.5" stroke-linecap="round" stroke-linejoin="round"/>
</svg>
