<svg width="24" height="24" viewBox="0 0 24 24" fill="none" xmlns="http://www.w3.org/2000/svg">
<g id="Group">
<g id="Group_2">
<path id="Path" d="M18.3858 7.99805H19.4472C20.3076 7.99805 21.0039 8.69434 21.0039 9.5547V19.4478C21.0039 20.3072 20.3076 21.0035 19.4472 21.0035H8.5547C7.69434 21.0035 6.99805 20.3072 6.99805 19.4468V18.0022" stroke="white" stroke-width="1.5" stroke-linecap="round" stroke-linejoin="round"/>
<path id="Path_2" fill-rule="evenodd" clip-rule="evenodd" d="M3.99809 18.0018H15.3148C15.9841 18.0018 16.6083 17.6677 16.9795 17.1104L17.7138 16.008C18.152 15.3507 18.3861 14.5784 18.3861 13.788V5.9968C18.3861 4.89134 17.4907 3.99597 16.3853 3.99597H6.38109C5.27562 3.99597 4.38025 4.89134 4.38025 5.9968V13.0557C4.38025 13.677 4.23519 14.2893 3.95808 14.8455L3.10372 16.5542C2.77058 17.2195 3.25478 18.0018 3.99809 18.0018Z" stroke="white" stroke-width="1.5" stroke-linecap="round" stroke-linejoin="round"/>
<path id="Path_3" d="M13.6518 9.59171L10.8376 12.4059L9.14893 10.7182" stroke="white" stroke-width="1.5" stroke-linecap="round" stroke-linejoin="round"/>
<path id="Path_4" d="M8.37863 2.99597V4.9968" stroke="white" stroke-width="1.5" stroke-linecap="round" stroke-linejoin="round"/>
<path id="Path_5" d="M14.3816 2.99597V4.9968" stroke="white" stroke-width="1.5" stroke-linecap="round" stroke-linejoin="round"/>
</g>
</g>
</svg>
