<svg width="24" height="24" viewBox="0 0 24 24" fill="none" xmlns="http://www.w3.org/2000/svg">
<rect x="2.99634" y="2.99609" width="18.0075" height="18.0075" rx="3" stroke="#707579" stroke-width="1.5" stroke-linecap="round" stroke-linejoin="round"/>
<path d="M21.0038 7.99826H2.99634" stroke="#707579" stroke-width="1.5" stroke-linecap="round" stroke-linejoin="round"/>
<path d="M13.75 11.4502C13.7229 11.4502 13.7009 11.4722 13.7009 11.4992C13.7009 11.5263 13.7229 11.5483 13.75 11.5483C13.777 11.5483 13.799 11.5263 13.799 11.4992C13.799 11.4722 13.777 11.4502 13.75 11.4502" stroke="#707579" stroke-width="1.5" stroke-linecap="round" stroke-linejoin="round"/>
<path d="M10.2485 14.4512C10.2356 14.4512 10.2232 14.4564 10.2142 14.4656C10.2051 14.4748 10.2002 14.4873 10.2005 14.5002C10.2005 14.5201 10.2125 14.5381 10.231 14.5456C10.2494 14.5531 10.2706 14.5487 10.2845 14.5345C10.2984 14.5203 10.3024 14.499 10.2945 14.4808C10.2866 14.4625 10.2684 14.4508 10.2485 14.4512" stroke="#707579" stroke-width="1.5" stroke-linecap="round" stroke-linejoin="round"/>
<path d="M6.74681 14.4507C6.73355 14.4504 6.72076 14.4556 6.71147 14.4651C6.70219 14.4746 6.69723 14.4875 6.69779 14.5007C6.69779 14.5206 6.70985 14.5386 6.72829 14.5461C6.74673 14.5536 6.76789 14.5492 6.78183 14.535C6.79577 14.5208 6.79971 14.4995 6.79181 14.4813C6.7839 14.463 6.76572 14.4513 6.74581 14.4517" stroke="#707579" stroke-width="1.5" stroke-linecap="round" stroke-linejoin="round"/>
<path d="M10.2485 17.4532C10.2356 17.4531 10.2232 17.4583 10.2142 17.4676C10.2051 17.4768 10.2002 17.4893 10.2005 17.5022C10.2005 17.5221 10.2125 17.54 10.231 17.5475C10.2494 17.5551 10.2706 17.5507 10.2845 17.5365C10.2984 17.5222 10.3024 17.501 10.2945 17.4827C10.2866 17.4644 10.2684 17.4527 10.2485 17.4532" stroke="#707579" stroke-width="1.5" stroke-linecap="round" stroke-linejoin="round"/>
<path d="M6.74703 17.4532C6.73396 17.4529 6.72133 17.458 6.71207 17.4672C6.70282 17.4765 6.69774 17.4891 6.69802 17.5022C6.69802 17.5221 6.71008 17.54 6.72852 17.5475C6.74696 17.5551 6.76812 17.5507 6.78206 17.5365C6.79599 17.5222 6.79994 17.501 6.79203 17.4827C6.78413 17.4644 6.76595 17.4527 6.74604 17.4532" stroke="#707579" stroke-width="1.5" stroke-linecap="round" stroke-linejoin="round"/>
<path d="M17.2514 11.4512C17.2385 11.4512 17.2261 11.4564 17.2171 11.4656C17.2081 11.4748 17.2031 11.4873 17.2034 11.5002C17.2034 11.5201 17.2154 11.5381 17.2339 11.5456C17.2523 11.5531 17.2735 11.5487 17.2874 11.5345C17.3014 11.5203 17.3053 11.499 17.2974 11.4808C17.2895 11.4625 17.2713 11.4508 17.2514 11.4512" stroke="#707579" stroke-width="1.5" stroke-linecap="round" stroke-linejoin="round"/>
<path d="M13.7509 11.4512C13.7311 11.4512 13.7132 11.4631 13.7057 11.4814C13.6981 11.4998 13.7023 11.5209 13.7163 11.5349C13.7303 11.5489 13.7514 11.5531 13.7697 11.5455C13.788 11.5379 13.8 11.52 13.8 11.5002C13.8 11.4731 13.778 11.4512 13.7509 11.4512" stroke="#707579" stroke-width="1.5" stroke-linecap="round" stroke-linejoin="round"/>
<path d="M13.75 14.4512C13.7229 14.4512 13.7009 14.4731 13.7009 14.5002C13.7009 14.5273 13.7229 14.5492 13.75 14.5492C13.777 14.5492 13.799 14.5273 13.799 14.5002C13.799 14.4731 13.777 14.4512 13.75 14.4512" stroke="#707579" stroke-width="1.5" stroke-linecap="round" stroke-linejoin="round"/>
<path d="M17.2514 14.4522C17.2385 14.4522 17.2261 14.4574 17.2171 14.4666C17.2081 14.4758 17.2031 14.4883 17.2034 14.5012C17.2034 14.5211 17.2154 14.539 17.2339 14.5466C17.2523 14.5541 17.2735 14.5497 17.2874 14.5355C17.3014 14.5213 17.3053 14.5 17.2974 14.4817C17.2895 14.4634 17.2713 14.4518 17.2514 14.4522" stroke="#707579" stroke-width="1.5" stroke-linecap="round" stroke-linejoin="round"/>
<path d="M13.7509 14.4531C13.7311 14.4531 13.7132 14.4651 13.7057 14.4834C13.6981 14.5017 13.7023 14.5228 13.7163 14.5368C13.7303 14.5508 13.7514 14.555 13.7697 14.5474C13.788 14.5399 13.8 14.522 13.8 14.5022C13.8 14.4751 13.778 14.4531 13.7509 14.4531" stroke="#707579" stroke-width="1.5" stroke-linecap="round" stroke-linejoin="round"/>
</svg>
