<svg width="24" height="24" viewBox="0 0 24 24" fill="none" xmlns="http://www.w3.org/2000/svg">
<g id="Group">
<ellipse id="Oval" cx="8.99908" cy="9.99915" rx="6.0025" ry="2.50104" stroke="white" stroke-width="1.5" stroke-linecap="round" stroke-linejoin="round"/>
<path id="Path" d="M15.0016 13.5006C15.0016 14.8819 12.3142 16.0017 8.99908 16.0017C5.68399 16.0017 2.99658 14.8819 2.99658 13.5006" stroke="white" stroke-width="1.5" stroke-linecap="round" stroke-linejoin="round"/>
<path id="Path_2" d="M21.004 9.9989C21.004 11.3802 18.3166 12.4999 15.0015 12.4999" stroke="white" stroke-width="1.5" stroke-linecap="round" stroke-linejoin="round"/>
<path id="Path_3" d="M15.0016 9.9989V17.502C15.0016 18.8833 12.3142 20.0031 8.99908 20.0031C5.68399 20.0031 2.99658 18.8833 2.99658 17.502V9.9989" stroke="white" stroke-width="1.5" stroke-linecap="round" stroke-linejoin="round"/>
<path id="Path_4" d="M21.004 6.49771V14.0008C21.004 15.3821 18.3166 16.5019 15.0015 16.5019" stroke="white" stroke-width="1.5" stroke-linecap="round" stroke-linejoin="round"/>
<path id="Path_5" d="M9.49923 7.50841C9.20224 7.25347 9.02168 6.88874 8.99902 6.49799C8.99902 5.11741 11.6901 3.99695 15.0015 3.99695C18.3129 3.99695 21.004 5.11741 21.004 6.49799C21.004 7.87856 18.3129 8.99903 15.0015 8.99903C14.8315 8.99903 14.6614 8.99903 14.5013 8.98903" stroke="white" stroke-width="1.5" stroke-linecap="round" stroke-linejoin="round"/>
</g>
</svg>
